<mxfile host="65bd71144e">
    <diagram id="G7ujTjhv2Iqo4sKtST1L" name="Página-1">
        <mxGraphModel dx="747" dy="402" grid="1" gridSize="10" guides="1" tooltips="1" connect="1" arrows="1" fold="1" page="1" pageScale="1" pageWidth="827" pageHeight="1169" math="0" shadow="0">
            <root>
                <mxCell id="0"/>
                <mxCell id="1" parent="0"/>
                <mxCell id="9" value="Persona: Diana de Gales" style="swimlane;fontStyle=0;childLayout=stackLayout;horizontal=1;startSize=26;fillColor=none;horizontalStack=0;resizeParent=1;resizeParentMax=0;resizeLast=0;collapsible=1;marginBottom=0;" vertex="1" parent="1">
                    <mxGeometry x="40" y="40" width="220" height="78" as="geometry"/>
                </mxCell>
                <mxCell id="10" value=" Apellido de nacimiento = &quot;Spencer&quot;" style="text;strokeColor=none;fillColor=none;align=left;verticalAlign=top;spacingLeft=4;spacingRight=4;overflow=hidden;rotatable=0;points=[[0,0.5],[1,0.5]];portConstraint=eastwest;" vertex="1" parent="9">
                    <mxGeometry y="26" width="220" height="26" as="geometry"/>
                </mxCell>
                <mxCell id="11" value=" Apellido de casada = &quot;Windsor&quot;" style="text;strokeColor=none;fillColor=none;align=left;verticalAlign=top;spacingLeft=4;spacingRight=4;overflow=hidden;rotatable=0;points=[[0,0.5],[1,0.5]];portConstraint=eastwest;" vertex="1" parent="9">
                    <mxGeometry y="52" width="220" height="26" as="geometry"/>
                </mxCell>
                <mxCell id="16" value="Persona: Carlos de Gales" style="swimlane;fontStyle=0;childLayout=stackLayout;horizontal=1;startSize=26;fillColor=none;horizontalStack=0;resizeParent=1;resizeParentMax=0;resizeLast=0;collapsible=1;marginBottom=0;" vertex="1" parent="1">
                    <mxGeometry x="420" y="53" width="140" height="52" as="geometry"/>
                </mxCell>
                <mxCell id="17" value=" Apellido = &quot;Windsor&quot;" style="text;strokeColor=none;fillColor=none;align=left;verticalAlign=top;spacingLeft=4;spacingRight=4;overflow=hidden;rotatable=0;points=[[0,0.5],[1,0.5]];portConstraint=eastwest;" vertex="1" parent="16">
                    <mxGeometry y="26" width="140" height="26" as="geometry"/>
                </mxCell>
                <mxCell id="23" value="Persona:Guillermo de Gales" style="swimlane;fontStyle=0;childLayout=stackLayout;horizontal=1;startSize=26;fillColor=none;horizontalStack=0;resizeParent=1;resizeParentMax=0;resizeLast=0;collapsible=1;marginBottom=0;" vertex="1" parent="1">
                    <mxGeometry x="420" y="213" width="170" height="52" as="geometry"/>
                </mxCell>
                <mxCell id="24" value=" Apellido = &quot;Windsor&quot;" style="text;strokeColor=none;fillColor=none;align=left;verticalAlign=top;spacingLeft=4;spacingRight=4;overflow=hidden;rotatable=0;points=[[0,0.5],[1,0.5]];portConstraint=eastwest;" vertex="1" parent="23">
                    <mxGeometry y="26" width="170" height="26" as="geometry"/>
                </mxCell>
                <mxCell id="36" value="Persona: Kate " style="swimlane;fontStyle=0;childLayout=stackLayout;horizontal=1;startSize=26;fillColor=none;horizontalStack=0;resizeParent=1;resizeParentMax=0;resizeLast=0;collapsible=1;marginBottom=0;" vertex="1" parent="1">
                    <mxGeometry x="50" y="200" width="220" height="78" as="geometry"/>
                </mxCell>
                <mxCell id="37" value=" Apellido de nacimiento = &quot;Middleton&quot;" style="text;strokeColor=none;fillColor=none;align=left;verticalAlign=top;spacingLeft=4;spacingRight=4;overflow=hidden;rotatable=0;points=[[0,0.5],[1,0.5]];portConstraint=eastwest;" vertex="1" parent="36">
                    <mxGeometry y="26" width="220" height="26" as="geometry"/>
                </mxCell>
                <mxCell id="38" value=" Apellido de casada = &quot;Windsor&quot;" style="text;strokeColor=none;fillColor=none;align=left;verticalAlign=top;spacingLeft=4;spacingRight=4;overflow=hidden;rotatable=0;points=[[0,0.5],[1,0.5]];portConstraint=eastwest;" vertex="1" parent="36">
                    <mxGeometry y="52" width="220" height="26" as="geometry"/>
                </mxCell>
                <mxCell id="43" value="" style="endArrow=open;endFill=1;endSize=12;html=1;" edge="1" parent="1">
                    <mxGeometry width="160" relative="1" as="geometry">
                        <mxPoint x="260" y="78.75" as="sourcePoint"/>
                        <mxPoint x="420" y="78.75" as="targetPoint"/>
                    </mxGeometry>
                </mxCell>
                <mxCell id="47" value="Casada con" style="text;html=1;align=center;verticalAlign=middle;resizable=0;points=[];autosize=1;strokeColor=none;fillColor=none;" vertex="1" parent="1">
                    <mxGeometry x="250" y="53" width="90" height="30" as="geometry"/>
                </mxCell>
                <mxCell id="49" value="" style="endArrow=open;endFill=1;endSize=12;html=1;exitX=0.423;exitY=1.014;exitDx=0;exitDy=0;exitPerimeter=0;entryX=0.357;entryY=-0.022;entryDx=0;entryDy=0;entryPerimeter=0;" edge="1" parent="1" source="17" target="23">
                    <mxGeometry width="160" relative="1" as="geometry">
                        <mxPoint x="410" y="160" as="sourcePoint"/>
                        <mxPoint x="570" y="160" as="targetPoint"/>
                        <Array as="points">
                            <mxPoint x="480" y="190"/>
                        </Array>
                    </mxGeometry>
                </mxCell>
                <mxCell id="50" value="Padre de" style="text;html=1;align=center;verticalAlign=middle;resizable=0;points=[];autosize=1;strokeColor=none;fillColor=none;" vertex="1" parent="1">
                    <mxGeometry x="470" y="118" width="70" height="30" as="geometry"/>
                </mxCell>
                <mxCell id="51" value="" style="endArrow=open;endFill=1;endSize=12;html=1;entryX=1;entryY=0.5;entryDx=0;entryDy=0;exitX=0.003;exitY=0.033;exitDx=0;exitDy=0;exitPerimeter=0;" edge="1" parent="1" source="24" target="37">
                    <mxGeometry width="160" relative="1" as="geometry">
                        <mxPoint x="230" y="170" as="sourcePoint"/>
                        <mxPoint x="390" y="170" as="targetPoint"/>
                    </mxGeometry>
                </mxCell>
                <mxCell id="52" value="Casado con" style="text;html=1;align=center;verticalAlign=middle;resizable=0;points=[];autosize=1;strokeColor=none;fillColor=none;" vertex="1" parent="1">
                    <mxGeometry x="330" y="213" width="90" height="30" as="geometry"/>
                </mxCell>
                <mxCell id="53" value="" style="endArrow=open;endFill=1;endSize=12;html=1;" edge="1" parent="1">
                    <mxGeometry width="160" relative="1" as="geometry">
                        <mxPoint x="140" y="118" as="sourcePoint"/>
                        <mxPoint x="440" y="210" as="targetPoint"/>
                        <Array as="points">
                            <mxPoint x="140" y="158"/>
                            <mxPoint x="440" y="160"/>
                        </Array>
                    </mxGeometry>
                </mxCell>
                <mxCell id="54" value="Madre de" style="text;html=1;align=center;verticalAlign=middle;resizable=0;points=[];autosize=1;strokeColor=none;fillColor=none;" vertex="1" parent="1">
                    <mxGeometry x="140" y="135" width="70" height="30" as="geometry"/>
                </mxCell>
            </root>
        </mxGraphModel>
    </diagram>
</mxfile>
